<svg width="25" height="20" viewBox="0 0 25 20" fill="none" xmlns="http://www.w3.org/2000/svg">
<g clip-path="url(#clip0_2006_2078)">
<path d="M12.4968 20L2.55273 14.8061V8.65308H3.58892V14.1463L12.4902 18.7959L21.204 14.1497V8.65308H22.2402V14.8027L12.4968 20Z" fill="#29B72C"/>
<path d="M13.0098 19.1564H11.9736V6.14624L21.4638 2.23468L24.9835 7.71427L14.4901 12.5102L13.0098 8.94897V19.1564ZM13.2401 6.7789L15.0296 11.0918L23.4407 7.24829L21.0657 3.55441L13.2401 6.7789Z" fill="#29B72C"/>
<path d="M11.98 8.94561L10.4998 12.5068L0.00634766 7.71091L3.52608 2.23132L13.0162 6.14288V19.1531H11.98V8.94561ZM3.76292 3.55445L1.38793 7.24833L9.7991 11.0919L11.5886 6.77894L3.76292 3.55445Z" fill="#29B72C"/>
<path d="M21.2235 3.27211L12.4932 1.10204L3.75966 3.2483L3.51953 2.20748L12.4932 0L21.4636 2.23129L21.2235 3.27211Z" fill="#29B72C"/>
</g>
<defs>
<clipPath id="clip0_2006_2078">
<rect width="25" height="20" fill="white"/>
</clipPath>
</defs>
</svg>
