<svg width="32" height="16" viewBox="0 0 32 16" fill="none" xmlns="http://www.w3.org/2000/svg">
<g clip-path="url(#clip0_2004_551)">
<path d="M15.8015 9.16921L13.2754 6.54357L14.1312 5.72716L15.818 7.48305L19.7539 3.53229L20.5974 4.361L15.8015 9.16921Z" fill="#29B72C"/>
<path d="M13.9824 16C12.5519 16 11.3612 14.9743 11.1132 13.6287L8.75244 13.6533L9.62066 0.00408936L24.2687 0.102551L23.1814 13.5097L16.8641 13.5754C16.6367 14.9456 15.4294 16 13.9824 16ZM12.2708 12.439L12.246 13.1528C12.2501 14.0513 13.0232 14.8225 13.9783 14.8225C14.9333 14.8225 15.7106 14.0513 15.7106 13.1036L15.6982 13.0133L15.6692 12.402L22.0858 12.3364L22.9829 1.26768L10.7328 1.18563L10.0176 12.4595L12.2708 12.439Z" fill="#29B72C"/>
<path d="M13.9823 15.881C12.3741 15.881 11.0635 14.5805 11.0635 12.9846C11.0635 11.3887 12.3741 10.0923 13.9823 10.0923C15.5906 10.0923 16.9012 11.3887 16.9012 12.9846C16.8971 14.5805 15.5906 15.881 13.9823 15.881ZM13.9823 11.2697C13.0273 11.2697 12.25 12.041 12.25 12.9846C12.25 13.9323 13.0273 14.7036 13.9823 14.7036C14.9374 14.7036 15.7146 13.9323 15.7146 12.9846C15.7105 12.041 14.9332 11.2697 13.9823 11.2697Z" fill="#29B72C"/>
<path d="M26.7204 15.881C25.1121 15.881 23.8015 14.5805 23.8015 12.9846C23.8015 11.3887 25.1121 10.0923 26.7204 10.0923C28.3286 10.0923 29.6392 11.3887 29.6392 12.9846C29.6392 14.5805 28.3286 15.881 26.7204 15.881ZM26.7204 11.2697C25.7653 11.2697 24.9881 12.041 24.9881 12.9846C24.9881 13.9323 25.7653 14.7036 26.7204 14.7036C27.6754 14.7036 28.4527 13.9323 28.4527 12.9846C28.4527 12.041 27.6754 11.2697 26.7204 11.2697Z" fill="#29B72C"/>
<path d="M26.737 16C25.29 16 24.0869 14.9498 23.8595 13.5754H21.999L23.0905 3.12207H30.6771L31.9877 6.41643L31.4957 13.5754H29.6187C29.3871 14.9498 28.184 16 26.737 16ZM23.3138 12.398H25.0543L25.0088 13.12C25.0088 14.0513 25.7861 14.8226 26.737 14.8226C27.6879 14.8226 28.4693 14.0513 28.4693 13.1036L28.4569 13.0133L28.4238 12.3939H30.3835L30.7804 6.59694L29.8667 4.2954H24.1572L23.3138 12.398Z" fill="#29B72C"/>
<path d="M7.0574 2.75281H1.26929V3.93024H7.0574V2.75281Z" fill="#29B72C"/>
<path d="M7.0574 8.97229H1.26929V10.1497H7.0574V8.97229Z" fill="#29B72C"/>
<path d="M7.05741 6.0636H0.0124512V7.24103H7.05741V6.0636Z" fill="#29B72C"/>
</g>
<defs>
<clipPath id="clip0_2004_551">
<rect width="32" height="16" fill="white"/>
</clipPath>
</defs>
</svg>
