<svg width="25" height="29" viewBox="0 0 25 29" fill="none" xmlns="http://www.w3.org/2000/svg">
<g clip-path="url(#clip0_2004_506)">
<path d="M14.9806 9.36133H4.06006V10.6688H14.9806V9.36133Z" fill="#29B72C"/>
<path d="M14.9806 12.7136H4.06006V14.0211H14.9806V12.7136Z" fill="#29B72C"/>
<path d="M17.3702 25.013L14.9807 22.6033L15.9642 21.6987L17.386 23.1354L20.8458 19.7679L21.8135 20.6877L17.3702 25.013Z" fill="#29B72C"/>
<path fill-rule="evenodd" clip-rule="evenodd" d="M12.9349 24.3669C13.7445 26.3167 15.7272 27.6887 18.0417 27.6887C21.0789 27.6887 23.5553 25.3133 23.5553 22.3904C23.5553 20.2772 22.2638 18.4528 20.3996 17.5939C19.977 17.3962 19.5228 17.2518 19.0409 17.1758C18.721 17.1188 18.3813 17.0846 18.0417 17.0846C15.0084 17.0846 12.5359 19.4676 12.5359 22.3904C12.5359 22.6185 12.5478 22.8427 12.5754 23.0594C12.6347 23.5193 12.7571 23.9564 12.9349 24.3669ZM11.2049 23.0594C11.2523 23.5117 11.3471 23.9488 11.4854 24.3669C12.3622 27.0502 14.9649 29 18.0377 29C21.8293 29 24.91 26.0354 24.91 22.3943C24.91 19.5437 23.026 17.1074 20.3956 16.18C19.9612 16.0279 19.507 15.9177 19.037 15.8531C18.7091 15.8075 18.3774 15.7809 18.0377 15.7809C14.2501 15.7809 11.1733 18.7493 11.1733 22.3943C11.1733 22.6147 11.1852 22.8389 11.2049 23.0594Z" fill="#FFB906"/>
<path fill-rule="evenodd" clip-rule="evenodd" d="M11.2053 23.0594H1.36293V3.25727H4.76353V7.19489H15.6407V3.25727H19.0373V15.8493C19.5073 15.9139 19.9615 16.0241 20.396 16.1761V1.9498H12.7693C12.4929 0.832372 11.4502 0 10.2021 0C8.95798 0 7.91135 0.832372 7.63093 1.9498H0.00427246V24.3668H11.4857C11.3514 23.9488 11.2527 23.5117 11.2053 23.0594ZM9.08437 1.9498C8.98168 2.12464 8.91454 2.32988 8.91454 2.54653V3.26107V3.27248H6.12219V5.88742H14.2781V3.27248H11.4857V3.26107V2.54653C11.4857 2.32988 11.4265 2.12844 11.3238 1.9498C11.1066 1.56972 10.684 1.30747 10.2021 1.30747C9.72025 1.30747 9.3016 1.56972 9.08437 1.9498Z" fill="#29B72C"/>
</g>
<defs>
<clipPath id="clip0_2004_506">
<rect width="25" height="29" fill="white"/>
</clipPath>
</defs>
</svg>
