<svg width="15" height="15" viewBox="0 0 15 15" fill="none" xmlns="http://www.w3.org/2000/svg">
<path d="M7.00724 11.885C7.0056 11.885 7.00368 11.885 7.00204 11.885C6.93423 11.8836 6.87024 11.8546 6.82431 11.8049L2.13595 6.7069C2.05556 6.6194 2.04817 6.4876 2.11845 6.39162C2.18872 6.29592 2.31669 6.26311 2.42442 6.31342L6.71548 8.32264C6.75157 8.33959 6.79423 8.33139 6.82185 8.30268L13.3674 1.46155C13.456 1.36885 13.6009 1.35873 13.7015 1.43858C13.8022 1.51842 13.8254 1.6617 13.7551 1.76916L7.24403 11.7436C7.23474 11.7581 7.2238 11.7712 7.21177 11.7835L7.18306 11.8123C7.1363 11.8587 7.07286 11.885 7.00724 11.885Z" fill="white"/>
</svg>
