<svg width="20" height="15" viewBox="0 0 20 15" fill="none" xmlns="http://www.w3.org/2000/svg">
<path d="M19.4277 1.58393L6.92768 14.0839C6.85512 14.1566 6.76896 14.2142 6.67412 14.2535C6.57928 14.2928 6.47761 14.3131 6.37495 14.3131C6.27228 14.3131 6.17062 14.2928 6.07577 14.2535C5.98093 14.2142 5.89477 14.1566 5.82221 14.0839L0.353462 8.61518C0.206867 8.46859 0.124512 8.26976 0.124512 8.06245C0.124512 7.85513 0.206867 7.65631 0.353462 7.50971C0.500056 7.36312 0.698881 7.28076 0.906196 7.28076C1.11351 7.28076 1.31234 7.36312 1.45893 7.50971L6.37495 12.4267L18.3222 0.478461C18.4688 0.331867 18.6676 0.249512 18.8749 0.249512C19.0823 0.249512 19.2811 0.331867 19.4277 0.478461C19.5743 0.625056 19.6566 0.82388 19.6566 1.0312C19.6566 1.23851 19.5743 1.43734 19.4277 1.58393Z" fill="#6FC727"/>
</svg>
